<?xml version="1.0" encoding="UTF-8"?>
<!DOCTYPE svg PUBLIC "-//W3C//DTD SVG 1.1//EN" "http://www.w3.org/Graphics/SVG/1.1/DTD/svg11.dtd">
<!-- Creator: CorelDRAW 2020 (64-Bit) -->
<?xml-stylesheet href="logoZero.css" type="text/css"?>
<svg xmlns="http://www.w3.org/2000/svg" xml:space="preserve" width="143px" height="171px" version="1.1" style="shape-rendering:geometricPrecision; text-rendering:geometricPrecision; image-rendering:optimizeQuality; fill-rule:evenodd; clip-rule:evenodd"
viewBox="0 0 18.43 22.04"
 xmlns:xlink="http://www.w3.org/1999/xlink"
 xmlns:xodm="http://www.corel.com/coreldraw/odm/2003">
 <g id="Layer_x0020_1">
  <metadata id="CorelCorpID_0Corel-Layer"/>
  <rect class="fil0" width="18.43" height="22.04"/>
  <path class="fil1" d="M3.56 14.89l0 -0.4 -0.2 0 0 0.4 -0.18 0 0 0.18 0.18 0 0 0.55c0,0.1 0.03,0.18 0.1,0.24 0.06,0.06 0.14,0.09 0.25,0.09 0.03,0 0.06,0 0.09,-0.01 0.03,0 0.06,-0.01 0.08,-0.02l-0.01 -0.16c-0.04,0.01 -0.08,0.02 -0.12,0.02 -0.13,0 -0.19,-0.06 -0.19,-0.18l0 -0.53 0.31 0 0 -0.18 -0.31 0zm2.37 1.05l0.42 -1.05 -0.21 0 -0.27 0.76 -0.32 -0.76 -0.12 0 -0.33 0.76 -0.27 -0.76 -0.2 0 0.41 1.05 0.12 0 0.33 -0.74 0.33 0.74 0.11 0zm1.97 -1c-0.09,-0.05 -0.18,-0.08 -0.28,-0.08 -0.11,0 -0.2,0.03 -0.29,0.08 -0.08,0.05 -0.15,0.12 -0.2,0.2 -0.05,0.08 -0.08,0.18 -0.08,0.27 0,0.1 0.03,0.19 0.08,0.28 0.05,0.08 0.12,0.15 0.2,0.2 0.09,0.05 0.18,0.08 0.29,0.08 0.1,0 0.19,-0.03 0.28,-0.08 0.09,-0.05 0.15,-0.12 0.2,-0.2 0.05,-0.08 0.08,-0.18 0.08,-0.28 0,-0.1 -0.03,-0.19 -0.08,-0.27 -0.05,-0.09 -0.11,-0.15 -0.2,-0.2zm-0.47 0.15c0.06,-0.04 0.12,-0.05 0.19,-0.05 0.06,0 0.12,0.01 0.18,0.05 0.05,0.03 0.1,0.08 0.13,0.14 0.03,0.05 0.05,0.12 0.05,0.18 0,0.07 -0.02,0.14 -0.05,0.19 -0.03,0.06 -0.08,0.11 -0.13,0.14 -0.06,0.04 -0.12,0.05 -0.18,0.05 -0.07,0 -0.13,-0.01 -0.19,-0.05 -0.05,-0.03 -0.1,-0.08 -0.13,-0.14 -0.03,-0.05 -0.05,-0.12 -0.05,-0.19 0,-0.06 0.02,-0.13 0.05,-0.18 0.03,-0.06 0.08,-0.11 0.13,-0.14zm1.8 1.14l0 -1.97 -0.06 0 0 1.97 0.06 0zm1.22 -1.31l0 -0.4 -0.07 0 0 0.4 -0.2 0 0 0.07 0.2 0 0 0.66c0,0.08 0.03,0.16 0.08,0.21 0.06,0.06 0.13,0.09 0.22,0.09 0.06,0 0.11,-0.01 0.16,-0.03l-0.01 -0.06c-0.04,0.01 -0.09,0.02 -0.14,0.02 -0.07,0 -0.13,-0.02 -0.17,-0.06 -0.04,-0.05 -0.07,-0.11 -0.07,-0.18l0 -0.65 0.37 0 0 -0.07 -0.37 0zm2.34 1.02l0.41 -1.02 -0.07 0 -0.37 0.91 -0.36 -0.91 -0.04 0 -0.36 0.91 -0.36 -0.91 -0.08 0 0.42 1.02 0.04 0 0.36 -0.9 0.37 0.9 0.04 0zm1.91 -0.98c-0.08,-0.04 -0.17,-0.07 -0.27,-0.07 -0.09,0 -0.18,0.03 -0.26,0.07 -0.08,0.05 -0.15,0.12 -0.2,0.2 -0.04,0.08 -0.07,0.17 -0.07,0.26 0,0.1 0.03,0.19 0.07,0.27 0.05,0.08 0.12,0.15 0.2,0.19 0.08,0.05 0.17,0.07 0.26,0.07 0.1,0 0.19,-0.02 0.27,-0.07 0.08,-0.04 0.15,-0.11 0.19,-0.19 0.05,-0.08 0.08,-0.17 0.08,-0.27 0,-0.09 -0.03,-0.18 -0.08,-0.26 -0.04,-0.08 -0.11,-0.15 -0.19,-0.2zm-0.5 0.06c0.07,-0.04 0.15,-0.06 0.23,-0.06 0.09,0 0.16,0.02 0.23,0.06 0.07,0.04 0.13,0.1 0.17,0.17 0.04,0.07 0.06,0.15 0.06,0.23 0,0.09 -0.02,0.17 -0.06,0.24 -0.04,0.07 -0.1,0.12 -0.17,0.17 -0.07,0.04 -0.14,0.06 -0.23,0.06 -0.08,0 -0.16,-0.02 -0.23,-0.06 -0.07,-0.05 -0.12,-0.1 -0.16,-0.17 -0.05,-0.07 -0.07,-0.15 -0.07,-0.24 0,-0.08 0.02,-0.16 0.07,-0.23 0.04,-0.07 0.09,-0.13 0.16,-0.17z"/>
  <path class="fil1" d="M5.74 5.86l0 -0.05 -2.33 0 0 0.16 2.07 0 -2.3 3.53 0 0.07 2.52 0 0 -0.16 -2.28 0 2.32 -3.55zm2.19 1.45c-0.18,-0.11 -0.38,-0.17 -0.6,-0.17 -0.23,0 -0.43,0.06 -0.62,0.17 -0.19,0.11 -0.34,0.26 -0.45,0.45 -0.11,0.19 -0.17,0.4 -0.17,0.62 0,0.22 0.06,0.43 0.16,0.62 0.11,0.18 0.26,0.33 0.46,0.44 0.19,0.11 0.41,0.17 0.65,0.17 0.19,0 0.37,-0.04 0.55,-0.11 0.17,-0.07 0.32,-0.17 0.44,-0.29l-0.08 -0.13c-0.12,0.12 -0.26,0.21 -0.42,0.28 -0.16,0.07 -0.32,0.1 -0.49,0.1 -0.2,0 -0.39,-0.05 -0.55,-0.14 -0.16,-0.09 -0.29,-0.21 -0.39,-0.37 -0.09,-0.15 -0.15,-0.32 -0.16,-0.51l2.21 0 0.01 -0.1c0,-0.21 -0.05,-0.4 -0.15,-0.59 -0.09,-0.18 -0.23,-0.33 -0.4,-0.44zm-1.11 0.12c0.15,-0.09 0.32,-0.14 0.51,-0.14 0.18,0 0.35,0.05 0.49,0.14 0.14,0.09 0.26,0.21 0.35,0.36 0.08,0.15 0.13,0.32 0.15,0.51l-2.05 0c0.01,-0.19 0.07,-0.36 0.17,-0.51 0.1,-0.15 0.22,-0.27 0.38,-0.36zm3.49 -0.11l0 -0.18c-0.25,0 -0.47,0.06 -0.65,0.17 -0.19,0.11 -0.32,0.26 -0.41,0.45l0 -0.55 -0.17 0 0 2.36 0.17 0 0 -1.34c0,-0.16 0.04,-0.31 0.12,-0.45 0.09,-0.14 0.21,-0.25 0.36,-0.34 0.16,-0.08 0.35,-0.12 0.56,-0.12l0.02 0z"/>
  <path class="fil1" d="M5.25 10.16c-0.18,-0.09 -0.38,-0.13 -0.61,-0.13l-1.46 0 0 3.75 0.47 0 0 -1.61 0.99 0c0.23,0 0.43,-0.04 0.61,-0.13 0.18,-0.09 0.33,-0.22 0.43,-0.38 0.1,-0.16 0.16,-0.35 0.16,-0.56 0,-0.21 -0.06,-0.4 -0.16,-0.56 -0.1,-0.16 -0.25,-0.29 -0.43,-0.38zm-1.6 0.28l0.99 0c0.22,0 0.4,0.06 0.53,0.18 0.13,0.11 0.19,0.27 0.19,0.48 0,0.2 -0.06,0.36 -0.19,0.48 -0.13,0.11 -0.31,0.17 -0.53,0.17l-0.99 0 0 -1.31zm4.08 1.02c-0.2,-0.12 -0.42,-0.17 -0.66,-0.17 -0.24,0 -0.46,0.05 -0.66,0.17 -0.2,0.12 -0.36,0.27 -0.47,0.47 -0.12,0.2 -0.18,0.41 -0.18,0.64 0,0.23 0.06,0.44 0.18,0.63 0.11,0.2 0.27,0.36 0.47,0.47 0.2,0.12 0.42,0.18 0.66,0.18 0.24,0 0.46,-0.06 0.66,-0.18 0.2,-0.11 0.35,-0.27 0.47,-0.46 0.12,-0.2 0.17,-0.41 0.17,-0.64 0,-0.24 -0.05,-0.45 -0.17,-0.64 -0.12,-0.2 -0.27,-0.35 -0.47,-0.47zm-1.08 0.35c0.13,-0.08 0.27,-0.12 0.42,-0.12 0.15,0 0.29,0.04 0.42,0.12 0.13,0.07 0.23,0.18 0.31,0.32 0.08,0.13 0.11,0.28 0.11,0.44 0,0.15 -0.03,0.3 -0.11,0.44 -0.08,0.13 -0.18,0.24 -0.31,0.32 -0.13,0.08 -0.27,0.12 -0.42,0.12 -0.15,0 -0.29,-0.04 -0.42,-0.12 -0.13,-0.08 -0.24,-0.19 -0.31,-0.32 -0.08,-0.14 -0.12,-0.29 -0.12,-0.44 0,-0.16 0.04,-0.31 0.12,-0.44 0.07,-0.14 0.18,-0.25 0.31,-0.32zm2.74 -1.58c-0.06,-0.05 -0.13,-0.08 -0.21,-0.08 -0.08,0 -0.14,0.03 -0.2,0.09 -0.06,0.05 -0.09,0.12 -0.09,0.2 0,0.07 0.03,0.14 0.09,0.2 0.06,0.05 0.12,0.08 0.2,0.08 0.08,0 0.15,-0.03 0.21,-0.08 0.05,-0.06 0.08,-0.13 0.08,-0.2 0,-0.08 -0.03,-0.15 -0.08,-0.21zm0.02 3.55l0 -2.42 -0.46 0 0 2.42 0.46 0zm2.44 -2.39c-0.15,-0.07 -0.29,-0.1 -0.43,-0.1 -0.35,0 -0.63,0.12 -0.83,0.38l0 -0.31 -0.47 0 0 2.42 0.47 0 0 -1.34c0,-0.21 0.06,-0.39 0.18,-0.53 0.13,-0.15 0.29,-0.22 0.49,-0.22 0.2,0 0.36,0.06 0.47,0.19 0.12,0.12 0.18,0.3 0.18,0.53l0 1.37 0.47 0 0 -1.53c0,-0.21 -0.06,-0.39 -0.16,-0.54 -0.1,-0.15 -0.22,-0.25 -0.37,-0.32zm1.79 -0.03l0 -0.93 -0.46 0 0 0.93 -0.43 0 0 0.4 0.43 0 0 1.28c0,0.23 0.07,0.41 0.22,0.55 0.15,0.14 0.35,0.22 0.58,0.22 0.07,0 0.14,-0.01 0.22,-0.02 0.08,-0.01 0.14,-0.03 0.19,-0.04l-0.02 -0.37c-0.09,0.02 -0.19,0.03 -0.29,0.03 -0.29,0 -0.44,-0.14 -0.44,-0.42l0 -1.23 0.73 0 0 -0.4 -0.73 0z"/>
  <circle class="fil2" cx="11.79" cy="8.38" r="1.24"/>
  <circle class="fil0" cx="11.79" cy="8.38" r="0.14"/>
 </g>
</svg>
